<?xml version="1.0" encoding="UTF-8"?>
<svg id="Ebene_3" xmlns="http://www.w3.org/2000/svg" viewBox="0 0 1986.81 2803.34">
  <defs>
    <style>
      .cls-1 {
        fill: #fff;
      }
    </style>
  </defs>
  <path class="cls-1" d="M953.74,1474.02v-.1c53.08-23.61,90.1-76.79,90.1-138.64h-152.68c-14.42,40.83-47.1,73.04-88.23,86.81h-.85v51.93l114.85,246.29h151.66l-114.85-246.29Z"/>
  <polygon class="cls-1" points="1588.92 1083.03 1437.26 1083.03 1216.68 1556.06 1178.42 1474.02 1026.76 1474.02 1140.85 1718.68 1140.09 1720.31 1141.61 1720.31 1291.75 1720.31 1293.27 1720.31 1292.51 1718.68 1588.92 1083.03"/>
  <polyline class="cls-1" points="1787.96 1719.5 1851.65 1581.86 1580.35 1582.67 1813.33 1083.03 1661.67 1083.03 1364.5 1720.31"/>
  <path class="cls-1" d="M892.19,1083.03H135.17v151.66h150.38v485.62h151.66v-485.62h151.66v485.62h151.66v-485.62h0s0,0,0,0h303.32c0-83.76-67.9-151.66-151.66-151.66Z"/>
</svg>